<?xml version="1.0" encoding="UTF-8"?>
<svg id="Layer_1" data-name="Layer 1" xmlns="http://www.w3.org/2000/svg" version="1.1" viewBox="0 0 512 512">
  <defs>
    <style>
      .cls-1 {
        fill: #fff;
        opacity: .5;
      }

      .cls-1, .cls-2, .cls-3 {
        isolation: isolate;
        stroke-width: 0px;
      }

      .cls-2 {
        fill: #b0b0b0;
        opacity: .7;
      }

      .cls-3 {
        fill: #c2c2c2;
        opacity: .6;
      }
    </style>
  </defs>
  <path class="cls-2" d="M223.9,447.7c-125.6-69.7-27.6-91.9,60.4-118.6,88-26.7,136.4-150.5,97-215.2,112.6,45.9,99.9,197.6,24.9,248.1-75,50.5-113.9,75.2-87.5,116.1"/>
  <path class="cls-3" d="M310.4,430.2c-182.2,36.2-196.7,1.5-209.5-24.2-15.1-30.2,27.8-71,10.8-129.1-11-37.4-40.9-61.8-63.6-76.2,23.7-98.2,149.8-134.7,162.9-127.3,25.4,14.4-57.5,139.7-34.3,206,25.4,72.8,66.5,129,133.8,150.8Z"/>
  <path class="cls-1" d="M458.5,259c-13.1,19.8-67.4,28-111.2,23.6-1.9-.2-4.7,0-8-1.6-37.7-18.3-15.9-52.9-48.4-93.2-30.3-37.6-157.2-63.6-243.1,13.2,26.7-79.3,127.4-133.3,206.8-144.2,96.4-13.2,166,104.8,203.8,202.2Z"/>
</svg>